<svg width="19" height="25" viewBox="0 0 19 25" fill="none" xmlns="http://www.w3.org/2000/svg">
<path d="M3.28103 19.3636V19.68H2.57577V21H2.19864V19.3636H3.28103ZM6.50024 21.6136V19.3636H6.8795V19.6342H6.90188C6.92176 19.5945 6.94982 19.5522 6.98604 19.5075C7.02226 19.462 7.07127 19.4233 7.13306 19.3913C7.19485 19.3587 7.27368 19.3423 7.36956 19.3423C7.49598 19.3423 7.60997 19.3746 7.71154 19.4393C7.81381 19.5032 7.89477 19.598 7.95443 19.7237C8.0148 19.8487 8.04499 20.0021 8.04499 20.1839C8.04499 20.3636 8.01551 20.5163 7.95656 20.642C7.89762 20.7678 7.81736 20.8636 7.7158 20.9297C7.61423 20.9957 7.49918 21.0288 7.37063 21.0288C7.27688 21.0288 7.19911 21.0131 7.13732 20.9819C7.07553 20.9506 7.02581 20.913 6.98817 20.869C6.95124 20.8242 6.92247 20.782 6.90188 20.7422H6.8859V21.6136H6.50024ZM6.87844 20.1818C6.87844 20.2876 6.89335 20.3803 6.92318 20.4599C6.95372 20.5394 6.9974 20.6016 7.05422 20.6463C7.11175 20.6903 7.18135 20.7124 7.26303 20.7124C7.34825 20.7124 7.41963 20.6896 7.47716 20.6442C7.53469 20.598 7.57801 20.5352 7.60713 20.4556C7.63696 20.3754 7.65188 20.2841 7.65188 20.1818C7.65188 20.0803 7.63732 19.9901 7.6082 19.9112C7.57908 19.8324 7.53575 19.7706 7.47823 19.7259C7.4207 19.6811 7.34896 19.6587 7.26303 19.6587C7.18064 19.6587 7.11068 19.6804 7.05316 19.7237C6.99563 19.767 6.95195 19.8278 6.92212 19.9059C6.893 19.984 6.87844 20.076 6.87844 20.1818ZM11.657 20.478L12.3122 19.3636H12.7085V21H12.3357V19.8846L11.6826 21H11.2852V19.3636H11.657V20.478ZM16.7571 21.5561V18.8182H17.1438V21.5561H16.7571ZM16.7571 21.032C16.6371 21.032 16.5274 21.0117 16.4279 20.9712C16.3285 20.9308 16.2426 20.8732 16.1701 20.7987C16.0984 20.7241 16.0426 20.6353 16.0029 20.5323C15.9638 20.4286 15.9443 20.3139 15.9443 20.1882C15.9443 20.0625 15.9638 19.9478 16.0029 19.8441C16.0426 19.7404 16.0984 19.6513 16.1701 19.5767C16.2426 19.5014 16.3285 19.4435 16.4279 19.4031C16.5274 19.3626 16.6371 19.3423 16.7571 19.3423H16.8392V21.032H16.7571ZM16.7571 20.7209H16.8051V19.6534H16.7571C16.6889 19.6534 16.6286 19.6676 16.576 19.696C16.5242 19.7237 16.4805 19.7624 16.445 19.8121C16.4102 19.8612 16.3835 19.918 16.3651 19.9826C16.3473 20.0465 16.3384 20.1151 16.3384 20.1882C16.3384 20.2855 16.3544 20.3746 16.3864 20.4556C16.4183 20.5359 16.4652 20.6001 16.527 20.6484C16.5895 20.6967 16.6662 20.7209 16.7571 20.7209ZM17.1438 21.032H17.0618V19.3423H17.1438C17.2639 19.3423 17.3736 19.3626 17.473 19.4031C17.5725 19.4435 17.658 19.5014 17.7298 19.5767C17.8022 19.6513 17.858 19.7404 17.897 19.8441C17.9368 19.9478 17.9567 20.0625 17.9567 20.1882C17.9567 20.3139 17.9368 20.4286 17.897 20.5323C17.858 20.6353 17.8022 20.7241 17.7298 20.7987C17.658 20.8732 17.5725 20.9308 17.473 20.9712C17.3736 21.0117 17.2639 21.032 17.1438 21.032ZM17.1438 20.7209C17.2127 20.7209 17.2731 20.707 17.3249 20.6793C17.3768 20.6516 17.4201 20.6133 17.4549 20.5643C17.4904 20.5153 17.5171 20.4588 17.5348 20.3949C17.5526 20.3303 17.5615 20.2614 17.5615 20.1882C17.5615 20.0909 17.5458 20.0018 17.5146 19.9208C17.4833 19.8398 17.4365 19.7752 17.374 19.7269C17.3122 19.6779 17.2355 19.6534 17.1438 19.6534H17.0959V20.7209H17.1438Z" fill="white"/>
<path d="M15.7877 10.7171C15.6772 10.7962 15.5637 10.8705 15.457 10.9559C15.3263 11.0607 15.207 11.1863 15.0721 11.2827C14.6932 11.5525 14.3102 11.8139 13.9264 12.0735C13.8182 12.1465 13.6909 12.1863 13.5911 12.2712C13.5372 12.3168 13.4978 12.4269 13.5013 12.5048C13.5032 12.5468 13.6137 12.622 13.6676 12.614C13.9031 12.5804 14.1362 12.522 14.3886 12.5052C13.981 12.7542 13.5785 13.0165 13.1634 13.2474C12.9447 13.369 12.6996 13.426 12.4733 13.5318C12.4122 13.5605 12.3751 13.6591 12.3273 13.7259C12.3892 13.7821 12.447 13.8776 12.5139 13.8869C12.6794 13.9104 12.8495 13.8944 12.9821 13.8944C12.6236 14.1536 12.1851 14.308 11.7321 14.4084C11.4251 14.4765 11.4117 14.4946 11.5811 14.7923C11.5849 14.7989 11.5532 14.8502 11.5352 14.852C11.3907 14.8692 11.2439 14.8697 11.1013 14.8975C11.0406 14.9095 10.9465 14.9683 10.9412 15.0169C10.9339 15.0802 10.9847 15.1806 11.0363 15.2204C11.3059 15.4274 11.5926 15.6047 11.8556 15.8219C12.0746 16.0024 12.2665 16.2257 12.4745 16.4252C12.6442 16.5884 12.8227 16.7392 12.9909 16.9042C13.0724 16.9842 13.1389 17.0846 13.2111 17.1766C13.7677 17.8825 14.2077 18.6716 14.4841 19.5765C14.5094 19.6587 14.5239 19.7459 14.5384 19.8317C14.5564 19.9391 14.5686 20.0484 14.5835 20.1567C14.5197 20.0696 14.4623 19.9745 14.3908 19.8971C14.1573 19.6441 13.9218 19.3929 13.6787 19.1528C13.6431 19.1178 13.5449 19.1191 13.5055 19.1519C13.4699 19.1819 13.4562 19.2806 13.465 19.3429C13.5865 20.2032 13.6137 21.0621 13.4275 21.9139C13.3258 22.3792 13.2004 22.8379 13.0842 23.2987C13.0762 23.3315 13.0552 23.3598 13.038 23.3943C12.9565 22.8675 12.8904 22.3487 12.7918 21.8388C12.736 21.5491 12.6347 21.2695 12.5349 20.9944C12.5116 20.9299 12.4148 20.8825 12.3453 20.8675C12.32 20.8622 12.2508 20.9714 12.2443 21.0342C12.1641 21.8118 11.9037 22.5163 11.5788 23.1891C11.3743 23.6132 11.1331 24.0135 10.9075 24.4244C10.8945 24.4478 10.8762 24.4673 10.8938 24.4438C10.927 23.8812 10.9637 23.2775 10.9989 22.6738C11.01 22.4849 11.034 22.2943 11.0188 22.1081C11.0126 22.0316 10.9178 21.9652 10.8636 21.894C10.8089 21.9542 10.737 22.0037 10.703 22.0767C10.4381 22.6437 10.1426 23.1846 9.73162 23.6274C9.633 23.7339 9.5122 23.8136 9.40286 23.9042C9.4583 23.6968 9.52634 23.4787 9.57413 23.255C9.62726 23.0073 9.67237 22.7556 9.69989 22.5026C9.70869 22.4226 9.64982 22.3328 9.62229 22.2474C9.54393 22.3049 9.44262 22.343 9.39216 22.4239C9.28206 22.5999 9.20064 22.7994 9.10239 22.986C9.05078 23.0838 8.99727 23.1041 8.9082 23.0104C8.67195 22.7627 8.3665 22.6946 8.06565 22.6605C7.98958 22.6517 7.88101 22.8007 7.81832 22.9029C7.69369 23.1055 7.59086 23.3257 7.48267 23.5318C7.49529 23.128 7.51478 22.7472 7.51708 22.3664C7.51861 22.1227 7.44597 22.0595 7.23305 22.0767C7.15124 22.0833 7.06943 22.0957 6.988 22.1099C6.95016 22.1165 6.91346 22.1324 6.87599 22.1439C6.89434 22.0993 6.90237 22.0391 6.93257 22.0117C7.07937 21.8799 7.23381 21.7591 7.38213 21.6296C7.4475 21.5725 7.54269 21.5123 7.55531 21.438C7.56448 21.3828 7.47312 21.2793 7.40736 21.239C7.3053 21.1762 7.329 21.1249 7.39322 21.0639C7.61877 20.8507 7.80876 20.8985 7.91656 21.2058C7.96626 21.3469 7.99187 21.5 8.02513 21.6486C8.07253 21.86 8.16619 21.9272 8.30343 21.7936C8.54006 21.5632 8.77822 21.3217 8.96592 21.04C9.5034 20.2324 9.66625 19.3005 9.5596 18.3009C9.54125 18.1284 9.49767 17.9546 9.4388 17.7945C9.41166 17.7211 9.31876 17.6799 9.25569 17.6247C9.21937 17.6972 9.14903 17.7715 9.15209 17.8423C9.17503 18.4283 9.11042 18.9962 8.91202 19.5371C8.85391 19.695 8.77325 19.8467 8.68074 19.9807C8.65245 20.0218 8.53585 20.0258 8.48501 19.994C8.17766 19.7989 7.85769 19.6592 7.50599 19.6189C7.35614 19.6017 7.20858 19.5424 7.05987 19.5415C6.99221 19.5411 6.90276 19.6185 6.86032 19.6901C6.72652 19.9139 6.61031 20.1519 6.47728 20.4031C6.50939 20.0506 6.55565 19.7419 6.56176 19.4318C6.56941 19.0271 6.40235 18.9113 6.07244 19.0577C6.03345 19.0749 5.98911 19.0776 5.94744 19.0873C5.96349 19.0351 5.96617 18.9612 5.99828 18.9343C6.12405 18.8268 6.26358 18.741 6.38897 18.6331C6.45434 18.5765 6.5006 18.4902 6.55564 18.4177C6.49945 18.3615 6.43981 18.3093 6.38897 18.2474C6.37215 18.2266 6.36718 18.155 6.37406 18.1514C6.49639 18.0873 6.61872 18.0192 6.74793 17.9834C6.76819 17.9776 6.8305 18.1231 6.85574 18.2058C6.91193 18.3889 6.96086 18.5751 7.00482 18.7627C7.0419 18.9223 7.15468 18.9794 7.25139 18.9161C7.48802 18.7618 7.74836 18.6397 7.87872 18.3173C8.0171 17.9754 8.01787 17.6508 7.90968 17.3C7.82481 17.0254 7.64858 16.8511 7.48 16.6596C7.10422 16.2328 6.61643 16.0678 6.13399 15.9104C5.31706 15.6441 4.47872 15.5424 3.63159 15.6233C3.0899 15.6751 2.5505 15.7719 2.05736 16.0599C1.88342 16.1616 1.71407 16.2867 1.56919 16.4358C1.48394 16.5234 1.42316 16.6737 1.4029 16.806C1.38034 16.955 1.32033 16.9555 1.26489 16.8768C1.15136 16.7162 0.98736 16.5402 0.975892 16.3593C0.944162 15.8653 0.886437 15.3836 1.15442 14.89C1.5042 14.2456 1.94076 13.7927 2.55585 13.5782C2.94769 13.4415 3.35596 13.369 3.75468 13.2567C4.82889 12.9532 5.84843 12.4986 6.71964 11.6905C7.01629 11.4154 7.27089 11.074 7.52128 10.7392C7.82214 10.3371 8.00984 9.85769 8.13484 9.34641C8.17039 9.2009 8.24379 9.11466 8.37644 9.07795C8.83441 8.95101 9.29659 8.83734 9.74539 8.67458C10.1762 8.51845 10.6013 8.33048 11.0126 8.11509C11.7806 7.71217 12.5467 7.30173 13.2945 6.85148C13.8824 6.49765 14.4409 6.07793 15.0136 5.69048C15.2537 5.52817 15.5014 5.38044 15.7376 5.21149C16.0079 5.01865 16.2766 4.82051 16.5335 4.60512C17.201 4.04518 17.8619 3.47419 18.5256 2.90763C18.5359 2.89878 18.5455 2.88817 18.5573 2.8833C18.607 2.86207 18.6571 2.84217 18.7072 2.82227C18.6877 2.8749 18.677 2.93682 18.6468 2.97928C18.5516 3.1124 18.4457 3.23536 18.3505 3.36805C18.2855 3.45827 18.2312 3.55867 18.172 3.65465C18.0405 3.86694 17.9132 4.08322 17.7752 4.28977C17.6953 4.40918 17.5978 4.51268 17.5091 4.62458C17.4307 4.72321 17.3531 4.82228 17.2763 4.92224C17.0037 5.27695 16.7338 5.63431 16.459 5.98682C16.2839 6.2115 16.1015 6.42822 15.9226 6.64892C15.847 6.7418 15.7586 6.82583 15.7009 6.93198C15.6642 6.99965 15.6734 7.10049 15.6619 7.18673C15.7464 7.19691 15.8412 7.23937 15.9135 7.20929C16.0022 7.1717 16.0671 7.06511 16.1509 7.00363C16.6065 6.67103 17.0718 6.35524 17.5194 6.00893C17.7564 5.82582 17.9644 5.59185 18.2144 5.41273C17.935 5.79884 17.6433 6.1739 17.3784 6.57284C16.9502 7.21725 16.4597 7.79001 15.9326 8.32297C15.7946 8.46229 15.6535 8.60559 15.4941 8.70554C15.3534 8.794 15.2739 8.91386 15.3324 9.06689C15.3993 9.24115 15.5499 9.15004 15.6512 9.09785C16.0438 8.89572 16.4307 8.67768 16.8199 8.46671C16.8592 8.44548 16.9009 8.43044 16.9418 8.41363C17.0003 8.38975 17.0592 8.36764 17.118 8.34464C17.0748 8.40611 17.0385 8.47688 16.9877 8.52774C16.7981 8.71748 16.5932 8.8882 16.4135 9.08944C15.8473 9.72235 15.225 10.2686 14.5541 10.7427C14.5434 10.7502 14.5346 10.7644 14.5235 10.7684C14.3901 10.8161 14.2632 10.9055 14.3469 11.0735C14.3805 11.1412 14.5617 11.1602 14.6569 11.1279C15.0293 11.0014 15.3943 10.8453 15.7625 10.7002C15.7697 10.706 15.7785 10.7113 15.7877 10.7171ZM1.20029 15.8024C1.20029 15.9201 1.19532 16.0382 1.20258 16.1554C1.20564 16.2067 1.23278 16.2558 1.24922 16.3062C1.29051 16.2726 1.336 16.2438 1.3727 16.2045C1.55543 16.0077 1.73625 15.8078 1.91745 15.6087C1.95759 15.5649 1.99619 15.5189 2.03519 15.4743C1.98396 15.4442 1.93274 15.4146 1.88189 15.384C1.85016 15.365 1.81882 15.3451 1.78747 15.3257C1.89107 15.2412 2.02678 15.0616 2.09215 15.0913C2.25729 15.1656 2.34025 15.0638 2.44576 14.9838C2.6044 14.8639 2.76381 14.7445 2.91864 14.6185C2.96795 14.5782 3.00427 14.5172 3.04632 14.4659C2.99089 14.4482 2.93546 14.4296 2.87964 14.4128C2.846 14.4026 2.81198 14.3942 2.77834 14.3854C2.79822 14.3509 2.8116 14.3035 2.8395 14.2841C3.0402 14.1443 3.24548 14.0134 3.44503 13.8719C3.49817 13.8343 3.5364 13.7684 3.58113 13.7157C3.51232 13.7047 3.43433 13.6636 3.37584 13.687C2.94616 13.8573 2.49278 13.9833 2.09979 14.2341C1.58524 14.5605 1.16932 15.0271 1.20029 15.8024Z" fill="white"/>
<path d="M13.5589 3.40289C13.466 3.6603 13.411 3.87968 13.3135 4.06942C13.013 4.65633 12.7064 5.2397 12.3823 5.80848C12.2309 6.07385 12.026 6.29765 11.8589 6.55196C11.7924 6.65325 11.7622 6.78593 11.7152 6.90446C11.8188 6.93012 11.922 6.95754 12.026 6.97965C12.0562 6.98629 12.0891 6.97744 12.133 7.0115C11.9423 7.11101 11.7523 7.21274 11.5607 7.31004C11.1146 7.53649 10.6784 7.79744 10.2186 7.97789C9.48803 8.26449 8.76399 8.59842 7.97649 8.63866C7.9245 8.64132 7.84384 8.72049 7.83008 8.78064C7.69322 9.36976 7.52578 9.94429 7.20314 10.4352C6.85565 10.9638 6.44393 11.4144 5.93512 11.7369C5.72181 11.8722 5.51385 12.0177 5.28027 12.1738C5.52455 11.7807 5.77342 11.4485 5.95576 11.073C6.33078 10.3008 6.54065 9.47812 6.35448 8.57807C6.33537 8.48563 6.31434 8.38833 6.32046 8.29589C6.32466 8.23309 6.36136 8.14596 6.40609 8.11765C6.82965 7.85317 7.27157 7.62495 7.68214 7.33613C8.23874 6.94471 8.77928 6.52144 9.31218 6.08756C9.5836 5.86686 9.82787 5.59972 10.0748 5.34187C10.5519 4.8443 11.0286 4.3454 11.4931 3.83191C11.7064 3.59617 11.8903 3.32505 12.0875 3.06985C12.2225 2.89604 12.3582 2.7231 12.4927 2.54884C12.7688 2.19015 13.0482 1.83499 13.3181 1.47011C13.4458 1.29762 13.554 1.10611 13.7088 0.949097C13.4706 1.57139 13.2489 2.20297 12.9889 2.81289C12.7577 3.35645 12.4794 3.87349 12.2355 4.40998C12.2003 4.48782 12.2393 4.61077 12.2443 4.7125C12.3387 4.6979 12.4675 4.72356 12.5214 4.66164C12.8605 4.27243 13.1839 3.86287 13.5589 3.40289Z" fill="white"/>
</svg>
